<?xml version="1.0" standalone="no"?><!DOCTYPE svg PUBLIC "-//W3C//DTD SVG 1.1//EN" "http://www.w3.org/Graphics/SVG/1.1/DTD/svg11.dtd"><svg t="1547649819737" class="icon" style="" viewBox="0 0 1024 1024" version="1.1" xmlns="http://www.w3.org/2000/svg" p-id="1106" xmlns:xlink="http://www.w3.org/1999/xlink" width="200" height="200"><defs><style type="text/css"></style></defs><path d="M767.94311111 990.32177778zM58.65244444 990.32177778zM997.66044444 2.27555555zM510.00888888 1021.72444445C260.72177778 1021.72444445 58.65244444 819.65511111 58.65244444 570.368c0-188.64355555 115.82577778-350.32177778 280.12088889-417.67822222v0.11377777c4.89244445-1.70666667 10.12622222-2.61688889 15.58755555-2.61688888 25.71377778 0 46.76266667 20.93511111 46.76266667 46.64888888 0 20.25244445-12.97066667 37.66044445-31.17511111 44.032-128 54.49955555-217.88444445 181.47555555-217.88444444 329.50044445 0 197.74577778 160.19911111 357.94488889 357.94488888 357.94488889S867.95377778 768 867.95377778 570.368c0-147.91111111-89.77066667-275.00088889-217.88444445-329.50044445-18.20444445-6.37155555-31.06133333-23.77955555-31.06133333-44.032 0-25.82755555 20.82133333-46.64888889 46.64888888-46.64888888 5.46133333 0 10.58133333 0.91022222 15.58755556 2.61688888v-0.11377777c164.40888889 67.47022222 280.12088889 229.03466667 280.12088889 417.67822222 0 249.28711111-202.06933333 451.35644445-451.35644445 451.35644445z m0-482.41777778c-25.71377778 0-46.64888889-20.93511111-46.64888888-46.76266667V72.24888889c0-25.71377778 20.93511111-46.64888889 46.64888888-46.64888889 25.82755555 0 46.64888889 20.93511111 46.6488889 46.64888889V492.43022222c0 25.94133333-20.82133333 46.87644445-46.6488889 46.87644445z" p-id="1107"></path></svg>