<?xml version="1.0" standalone="no"?><!DOCTYPE svg PUBLIC "-//W3C//DTD SVG 1.1//EN" "http://www.w3.org/Graphics/SVG/1.1/DTD/svg11.dtd"><svg t="1547649801826" class="icon" style="" viewBox="0 0 1024 1024" version="1.1" xmlns="http://www.w3.org/2000/svg" p-id="761" xmlns:xlink="http://www.w3.org/1999/xlink" width="200" height="200"><defs><style type="text/css"></style></defs><path d="M1016.31989099 573.27251012l-443.04738087-377.06160074c-32.99289006-32.99289006-94.26540019-32.99289006-127.25829025 0l-443.04738088 377.06160074v-150.8246403l447.76065089-395.91468076c32.99289006-32.99289006 84.83886017-32.99289006 117.83175024 0l447.76065087 395.91468076v150.8246403z m-127.25829024 0v377.06160075c0 51.84597011-51.84597011 61.27251012-103.69194022 61.27251012h-150.8246403v-127.25829026c0-23.56635005-37.70616007-61.27251012-61.27251011-61.27251011h-127.25829025c-23.56635005 0-61.27251012 37.70616007-61.27251012 61.27251011v127.25829026h-150.82464031c-51.84597011 0-103.69194019-14.13981003-103.69194019-61.27251012v-377.06160075l377.06160074-315.78909062 381.77487076 315.78909062z" p-id="762"></path></svg>