<?xml version="1.0" standalone="no"?><!DOCTYPE svg PUBLIC "-//W3C//DTD SVG 1.1//EN" "http://www.w3.org/Graphics/SVG/1.1/DTD/svg11.dtd"><svg t="1547649814704" class="icon" style="" viewBox="0 0 1024 1024" version="1.1" xmlns="http://www.w3.org/2000/svg" p-id="991" xmlns:xlink="http://www.w3.org/1999/xlink" width="200" height="200"><defs><style type="text/css"></style></defs><path d="M968.32474075 999.2722963c0 8.98085925-7.28177778 16.14127408-16.14127408 16.14127407H71.81653333c-8.98085925 0-16.14127408-7.28177778-16.14127408-16.14127407 0-1.33499259 0.12136297-2.54862222 0.48545186-3.76225185 8.25268148-190.53985185 133.25653333-350.86032592 305.47057778-410.9349926l141.63057778 141.63057778c4.85451852 4.85451852 12.74311111 4.85451852 17.59762963 0L662.49007408 584.57505185c172.09268148 60.07466667 297.2178963 220.39514075 305.47057777 410.9349926 0.24272592 1.21362963 0.36408889 2.42725925 0.3640889 3.76225185zM512 559.08882963c-151.09688889 0-273.55211852-122.45522963-273.55211852-273.55211852S360.90311111 12.10595555 512 12.10595555 785.55211852 134.56118518 785.55211852 285.53671111 663.09688889 559.08882963 512 559.08882963z" fill="" p-id="992"></path></svg>