<?xml version="1.0" standalone="no"?><!DOCTYPE svg PUBLIC "-//W3C//DTD SVG 1.1//EN" "http://www.w3.org/Graphics/SVG/1.1/DTD/svg11.dtd"><svg t="1547649808645" class="icon" style="" viewBox="0 0 1024 1024" version="1.1" xmlns="http://www.w3.org/2000/svg" p-id="876" xmlns:xlink="http://www.w3.org/1999/xlink" width="200" height="200"><defs><style type="text/css"></style></defs><path d="M915.34222222 516.20977778c0 53.70311111 42.55288889 97.39377778 95.68711111 99.44177777-13.76711111 66.78755555-40.73244445 128.79644445-78.05155555 183.296-39.13955555-34.816-98.98666667-33.45066667-136.41955556 3.98222223-36.97777778 36.97777778-38.79822222 95.80088889-5.34755555 134.94044444-54.61333333 35.72622222-116.50844445 61.21244445-182.95466667 73.84177778-4.55111111-50.74488889-47.104-90.56711111-99.10044445-90.56711111-51.42755555 0-93.75288889 39.02577778-98.98666666 89.088-65.08088889-13.42577778-125.61066667-39.25333333-178.97244444-74.86577778 30.60622222-39.02577778 27.87555555-95.68711111-8.07822223-131.64088889-36.06755555-36.06755555-92.84266667-38.68444445-131.86844444-7.85066667-36.18133333-53.81688889-62.464-114.91555555-76.00355556-180.56533333 50.06222222-5.23377778 89.088-47.55911111 89.088-98.98666667 0-51.99644445-39.82222222-94.54933333-90.56711111-99.10044444 12.51555555-66.44622222 38.11555555-128.34133333 73.728-182.84088889 39.13955555 34.01955555 98.41777778 32.42666667 135.62311111-4.77866667 37.66044445-37.66044445 38.79822222-98.07644445 3.41333333-137.216 54.38577778-37.20533333 116.39466667-64.17066667 183.18222223-77.93777777 2.048 53.248 45.73866667 95.68711111 99.44177777 95.68711111 54.15822222 0 98.304-43.34933333 99.44177778-97.28C676.97777778 25.82755555 740.46577778 52.56533333 796.10311111 89.88444445c-38.45688889 38.912-38.34311111 101.60355555 0.34133334 140.40177777 38.68444445 38.68444445 101.14844445 38.79822222 140.06044444 0.56888889 36.864 55.296 63.14666667 118.21511111 76.00355556 185.91288889-53.81688889 1.13777778-97.16622222 45.16977778-97.16622223 99.44177778zM510.52088889 290.24711111c-118.89777778 0-215.15377778 96.36977778-215.15377778 215.15377778 0 118.89777778 96.36977778 215.15377778 215.15377778 215.15377778 118.89777778 0 215.15377778-96.36977778 215.15377778-215.15377778 0-118.784-96.256-215.15377778-215.15377778-215.15377778z" fill="" p-id="877"></path></svg>